<svg width="24" height="24" viewBox="0 0 24 24" fill="none" xmlns="http://www.w3.org/2000/svg">
<path d="M14.283 3.50094L6.51 11.4749C6.37348 11.615 6.29707 11.8029 6.29707 11.9984C6.29707 12.194 6.37348 12.3819 6.51 12.5219L14.283 20.4989C14.3466 20.5643 14.4226 20.6162 14.5066 20.6516C14.5906 20.6871 14.6808 20.7053 14.772 20.7053C14.8632 20.7053 14.9534 20.6871 15.0374 20.6516C15.1214 20.6162 15.1974 20.5643 15.261 20.4989C15.3918 20.365 15.4651 20.1852 15.4651 19.9979C15.4651 19.8107 15.3918 19.6309 15.261 19.4969L7.9515 11.9984L15.261 4.50144C15.3914 4.36757 15.4644 4.18807 15.4644 4.00119C15.4644 3.81431 15.3914 3.63481 15.261 3.50094C15.1974 3.43563 15.1214 3.38371 15.0374 3.34827C14.9534 3.31282 14.8632 3.29456 14.772 3.29456C14.6808 3.29456 14.5906 3.31282 14.5066 3.34827C14.4226 3.38371 14.3466 3.43563 14.283 3.50094Z" fill="#DDDDDD"/>
</svg>
