<svg width="24" height="24" viewBox="0 0 24 24" fill="none" xmlns="http://www.w3.org/2000/svg">
<path d="M9.71695 3.50094L17.49 11.4749C17.6265 11.615 17.7029 11.8029 17.7029 11.9984C17.7029 12.194 17.6265 12.3819 17.49 12.5219L9.71695 20.4989C9.65336 20.5643 9.57733 20.6162 9.49334 20.6516C9.40935 20.6871 9.31912 20.7053 9.22796 20.7053C9.13679 20.7053 9.04656 20.6871 8.96257 20.6516C8.87858 20.6162 8.80255 20.5643 8.73895 20.4989C8.60811 20.365 8.53486 20.1852 8.53486 19.9979C8.53486 19.8107 8.60811 19.6309 8.73895 19.4969L16.0485 11.9984L8.73895 4.50144C8.60856 4.36757 8.53559 4.18807 8.53559 4.00119C8.53559 3.81431 8.60856 3.63481 8.73895 3.50094C8.80255 3.43563 8.87858 3.38371 8.96257 3.34827C9.04656 3.31282 9.13679 3.29456 9.22796 3.29456C9.31912 3.29456 9.40935 3.31282 9.49334 3.34827C9.57733 3.38371 9.65336 3.43563 9.71695 3.50094Z" fill="#DDDDDD"/>
</svg>
